<?xml version="1.0" encoding="iso-8859-1"?>
<!-- Generator: Adobe Illustrator 19.0.0, SVG Export Plug-In . SVG Version: 6.00 Build 0)  -->
<svg version="1.1" id="Layer_1" xmlns="http://www.w3.org/2000/svg" xmlns:xlink="http://www.w3.org/1999/xlink" x="0px" y="0px"
	 viewBox="0 0 491.52 491.52" style="enable-background:new 0 0 491.52 491.52;" xml:space="preserve">
<g>
	<g>
		<path d="M0,0v491.52h491.52V0H0z M471.04,471.04H20.48V102.4h450.56V471.04z M471.04,81.92H20.48V20.48h450.56V81.92z"/>
	</g>
</g>
<g>
	<g>
		<rect x="40.96" y="40.96" width="20.48" height="20.48"/>
	</g>
</g>
<g>
	<g>
		<rect x="81.92" y="40.96" width="20.48" height="20.48"/>
	</g>
</g>
<g>
	<g>
		<rect x="122.88" y="40.96" width="20.48" height="20.48"/>
	</g>
</g>
<g>
	<g>
		<rect x="194.56" y="40.96" width="245.76" height="20.48"/>
	</g>
</g>
<g>
	<g>
		<polygon points="143.36,245.76 143.36,276.48 92.16,276.48 92.16,194.56 71.68,194.56 71.68,296.96 143.36,296.96 143.36,368.64 
			163.84,368.64 163.84,245.76 		"/>
	</g>
</g>
<g>
	<g>
		<polygon points="389.12,245.76 389.12,276.48 337.92,276.48 337.92,194.56 317.44,194.56 317.44,296.96 389.12,296.96 
			389.12,368.64 409.6,368.64 409.6,245.76 		"/>
	</g>
</g>
<g>
	<g>
		<path d="M240.64,194.56c-31.055,0-56.32,25.27-56.32,56.32v61.44c0,31.05,25.265,56.32,56.32,56.32s56.32-25.27,56.32-56.32
			v-61.44C296.96,219.83,271.695,194.56,240.64,194.56z M276.48,312.32c0,19.76-16.08,35.84-35.84,35.84s-35.84-16.08-35.84-35.84
			v-61.44c0-19.76,16.08-35.84,35.84-35.84s35.84,16.08,35.84,35.84V312.32z"/>
	</g>
</g>
<g>
	<g>
		<rect x="143.36" y="133.12" width="204.8" height="20.48"/>
	</g>
</g>
<g>
	<g>
		<rect x="143.36" y="419.84" width="204.8" height="20.48"/>
	</g>
</g>
<g>
</g>
<g>
</g>
<g>
</g>
<g>
</g>
<g>
</g>
<g>
</g>
<g>
</g>
<g>
</g>
<g>
</g>
<g>
</g>
<g>
</g>
<g>
</g>
<g>
</g>
<g>
</g>
<g>
</g>
</svg>
